# xmcd
#
# Track frame offsets: 
#        150
#        11098
#        24902
#        36923
#        48459
#        60076
#        72783
#        86026
#        98390
#        110707
#        120087
#        133772
#        146665
#        159913
#        172867
#        184778
#        194883
#        205516
#        216269
#        228654
#        240817
#        253451
#        265559
#
# Disc length: 3688 seconds
#
# Revision: 0
# Processed by: cddbd v1.5.1PL2 Copyright (c) Steve Scherf et al.
# Submitted via: ExactAudioCopy v0.95b4
#
DISCID=340e6617
DTITLE=Big Mama Thornton - They called me Big Mama
DYEAR=1900
DGENRE=Blues
TTITLE0=All right Baby
TTITLE1=Bad luck got my man
TTITLE2=Partnership Blues
TTITLE3=Mischievous Boogie
TTITLE4=I'm all fed up
TTITLE5=Cotton picking Blues
TTITLE6=Everytime I think of you
TTITLE7=No jody for me
TTITLE8=Let your tears fall Baby
TTITLE9=They call me Big Mama
TTITLE10=Walking Blues
TTITLE11=Hound dog
TTITLE12=Just can't help myself
TTITLE13=Nightmare
TTITLE14=Rockabye baby
TTITLE15=Hard times
TTITLE16=I've searched the world over
TTITLE17=I ain't no fool either
TTITLE18=The big change
TTITLE19=I smell a rat
TTITLE20=Yes Baby
TTITLE21=Willie Mae's Blues
TTITLE22=Stop hoppin' on me
EXTD=
EXTT0=
EXTT1=
EXTT2=
EXTT3=
EXTT4=
EXTT5=
EXTT6=
EXTT7=
EXTT8=
EXTT9=
EXTT10=
EXTT11=
EXTT12=
EXTT13=
EXTT14=
EXTT15=
EXTT16=
EXTT17=
EXTT18=
EXTT19=
EXTT20=
EXTT21=
EXTT22=
PLAYORDER=
